<?xml version="1.0" encoding="UTF-8" standalone="no"?>
<!-- Created with Inkscape (http://www.inkscape.org/) -->
<svg
   xmlns:dc="http://purl.org/dc/elements/1.1/"
   xmlns:cc="http://web.resource.org/cc/"
   xmlns:rdf="http://www.w3.org/1999/02/22-rdf-syntax-ns#"
   xmlns:svg="http://www.w3.org/2000/svg"
   xmlns="http://www.w3.org/2000/svg"
   xmlns:sodipodi="http://sodipodi.sourceforge.net/DTD/sodipodi-0.dtd"
   xmlns:inkscape="http://www.inkscape.org/namespaces/inkscape"
   version="1.0"
   width="1200"
   height="1230"
   id="svg2"
   sodipodi:version="0.32"
   inkscape:version="0.45"
   sodipodi:docname="Africa.svg"
   inkscape:output_extension="org.inkscape.output.svg.inkscape"
   sodipodi:docbase="/home/tbourke/projects/svgtoquiz/examples"
   sodipodi:modified="true">
  <metadata
     id="metadata91">
    <rdf:RDF>
      <cc:Work
         rdf:about="">
        <dc:format>image/svg+xml</dc:format>
        <dc:type
           rdf:resource="http://purl.org/dc/dcmitype/StillImage" />
      </cc:Work>
    </rdf:RDF>
  </metadata>
  <defs
     id="defs89" />
  <sodipodi:namedview
     inkscape:window-height="1024"
     inkscape:window-width="1280"
     inkscape:pageshadow="2"
     inkscape:pageopacity="0.0"
     guidetolerance="10.0"
     gridtolerance="10.0"
     objecttolerance="10.0"
     borderopacity="1.0"
     bordercolor="#666666"
     pagecolor="#ffffff"
     id="base"
     inkscape:zoom="0.30731707"
     inkscape:cx="600"
     inkscape:cy="615"
     inkscape:window-x="-1"
     inkscape:window-y="-1"
     inkscape:current-layer="svg2" />
  <rect
     style="opacity:1;fill:#a0c6e9;fill-opacity:1;fill-rule:evenodd;stroke:none;stroke-width:4;stroke-miterlimit:4;stroke-dasharray:none;stroke-opacity:1"
     id="rect3491"
     width="1200.7142"
     height="1230"
     x="0"
     y="0" />
  <g
     id="g27"
     style="color:#000000;fill:#fdf9d2;fill-opacity:1;fill-rule:nonzero;stroke:#000000;stroke-width:1;stroke-linecap:round;stroke-linejoin:miter;marker:none;marker-start:none;marker-mid:none;marker-end:none;stroke-miterlimit:4;stroke-dasharray:none;stroke-dashoffset:0;stroke-opacity:1;visibility:visible;display:inline;overflow:visible"
     transform="translate(-111.5439,-93.00714)">
    <path
       d="M 838.03386,357.61748 L 970.00575,353.67998 L 974.25665,357.88236 L 982.96812,356.78282 L 983.86994,349.42884 L 993.53414,346.7603 L 995.57964,337.70712 L 999.82306,339.10462 L 1005.1607,333.53553 L 1002.2732,319.27699 L 1006.8914,319.4405 L 995.65801,309.43978 L 964.84572,258.54873 L 964.7073,252.37157 C 957.4161,247.59093 952.02157,241.54585 948.76514,234.07537 L 948.47936,229.33273 L 943.82903,225.94918 L 945.04242,218.42184 L 958.85541,236.88171 C 960.09266,238.30495 958.7023,239.32949 959.81783,240.87445 C 963.42775,245.87402 969.64388,250.9154 973.30784,253.84338 C 975.17946,253.21407 977.37382,253.66057 978.30179,249.88574 L 981.90471,225.91219 L 965.70709,192.9118 C 954.77054,200.56536 943.83398,203.62359 932.89743,192.232 L 919.53077,193.25631 C 916.47653,194.56864 913.22571,196.56899 911.46231,193.36337 L 889.89671,205.9648 L 854.18427,198.00873 C 848.81753,196.90593 843.09337,195.08828 838.66498,195.86218 C 834.12176,198.6343 830.88913,196.49174 827.65898,194.33988 C 825.82122,197.5331 823.88319,200.76277 825.64563,202.64682 L 827.09036,215.65101 C 823.92875,220.74595 821.01222,225.96955 831.00225,237.96911 L 838.03386,357.61748 z "
       id="Aegypten"
       style="fill:#fdf9d2;fill-opacity:1" />
    <g
       id="Aequatorialguinea"
       style="fill:#fdf9d2;fill-opacity:1">
      <path
         id="path31"
         d="M 612.76541,710.96881 L 585.62916,712.27883 L 580.2019,708.72305 L 588.34279,693.0963 L 612.57827,692.81559 L 612.76541,710.96881 z "
         style="fill:#fdf9d2;fill-opacity:1" />
      <path
         id="path33"
         transform="translate(426.3674,237.0459)"
         d="M 111.50525,488.15994 C 111.50637,489.78482 110.18946,491.10263 108.56458,491.10263 C 106.93971,491.10263 105.6228,489.78482 105.62392,488.15994 C 105.6228,486.53506 106.93971,485.21725 108.56458,485.21725 C 110.18946,485.21725 111.50637,486.53506 111.50525,488.15994 z "
         style="fill:#fdf9d2;fill-opacity:1" />
      <path
         id="path35"
         transform="translate(426.3674,237.0459)"
         d="M 122.90782,464.75467 C 122.90782,466.04731 121.85993,467.0952 120.56729,467.0952 C 119.27465,467.0952 118.22676,466.04731 118.22676,464.75467 C 118.22676,463.46203 119.27465,462.41414 120.56729,462.41414 C 121.85993,462.41414 122.90782,463.46203 122.90782,464.75467 L 122.90782,464.75467 z "
         style="fill:#fdf9d2;fill-opacity:1" />
    </g>
    <path
       d="M 1231.5511,587.09474 L 1183.3476,642.1 L 1164.5141,641.76139 C 1162.1888,642.4073 1153.4718,647.76947 1148.4667,652.17701 C 1144.3614,655.79213 1138.0359,657.89889 1131.5603,660.84616 C 1127.7206,660.86719 1123.0577,662.26026 1120.3694,660.36224 C 1114.0664,654.25277 1106.8532,657.24495 1099.7168,659.46917 C 1097.3593,663.81249 1094.1388,667.29289 1088.7766,668.63144 L 1063.0147,664.62615 C 1057.1828,659.67666 1050.7569,655.08354 1042.7797,651.42125 L 1028.4629,650.42993 L 1028.4706,638.79466 L 1017.2093,634.67338 L 1009.0698,616.08592 L 997.38874,606.74172 C 999.56654,603.25437 993.849,600.37436 990.94147,597.27819 C 986.98735,598.16873 983.03323,597.36233 979.07911,595.23631 L 982.55816,591.05455 L 982.34642,585.67269 L 992.60922,585.85805 C 994.8501,584.45049 997.32814,583.91252 998.96877,580.30404 L 998.67575,550.1453 L 1003.5588,542.46446 L 1008.6933,542.65254 L 1011.0357,529.78296 C 1017.214,522.1823 1019.4016,512.90131 1029.5932,506.99044 L 1032.2675,484.68011 L 1040.4306,484.44498 L 1041.5626,481.78858 L 1045.5255,481.85846 L 1048.9206,487.50129 L 1053.8095,474.53203 C 1057.0399,476.61039 1061.2593,476.69041 1063.1488,481.25917 L 1071.3891,479.64752 L 1072.7805,477.01058 L 1074.2579,476.69437 L 1076.2478,480.19797 C 1078.8602,478.64427 1082.1056,476.98944 1086.2955,479.70162 C 1087.508,480.21956 1088.9219,480.4912 1092.0454,478.67347 C 1095.3469,480.45661 1097.3502,484.09426 1102.0243,483.91658 C 1112.5746,493.1296 1122.801,502.71293 1131.8541,513.63715 C 1131.0373,514.40918 1130.6681,517.32523 1130.0668,523.91382 L 1126.161,530.9218 C 1123.013,536.09041 1126.8227,540.64943 1132.8164,538.50241 L 1138.0806,536.47893 L 1143.3648,538.64222 C 1136.986,545.99576 1152.1718,558.80072 1165.8598,571.58903 L 1215.2743,587.37813 L 1231.5511,587.09474 z "
       id="Aethopien"
       style="fill:#fdf9d2;fill-opacity:1" />
    <path
       d="M 312.52674,230.56608 L 328.55624,222.57921 L 331.86552,223.76254 L 337.3565,218.99246 L 346.57378,219.83764 L 347.07296,215.57706 C 366.15216,216.50916 370.11309,211.40706 373.48242,206.29125 L 389.45618,199.70942 L 395.35385,199.89439 L 392.26628,195.80847 L 393.07967,192.57805 L 392.95044,187.22992 C 399.19785,186.41211 406.90248,187.41478 406.94894,180.88014 L 432.79234,181.23976 L 436.37909,173.80781 C 431.42566,171.9898 430.53937,164.8269 431.20297,157.21584 C 431.69573,151.56422 431.24866,138.70707 431.24866,138.70707 C 429.53867,136.64351 427.40875,134.70035 426.91614,131.73714 C 428.29767,131.12313 434.78348,132.18654 438.72143,126.91174 C 440.75104,124.19313 443.34321,118.70626 446.72865,119.7783 C 450.67985,121.02948 458.2498,121.81955 458.71261,119.31228 C 459.2078,116.62955 466.54263,110.72566 477.13472,110.75988 C 496.5355,110.82255 521.6013,103.44227 529.79227,105.84167 C 537.98324,108.24107 548.65085,102.65392 553.38639,102.95732 C 558.15504,103.26284 559.59333,108.46533 566.09867,104.03956 C 568.53027,102.38527 577.31223,109.26482 585.68082,106.82899 C 585.68082,106.82899 580.68358,109.04793 580.40182,114.17744 C 579.9678,122.07883 579.23576,146.67185 579.23576,146.67185 C 578.40478,145.34229 572.45633,146.3399 571.52134,150.3533 C 570.25083,155.8069 564.11195,154.39633 563.62469,157.15155 C 562.64378,162.69808 567.48343,167.79172 573.18372,172.76695 C 574.64533,174.04265 572.64562,181.1061 574.09345,182.39786 C 578.50854,186.33703 586.3341,189.01869 586.3341,189.01869 C 588.15156,207.09191 591.36972,219.57297 591.36972,219.57297 C 583.08716,220.12643 587.51312,227.81446 593.09003,236.0198 C 593.09003,236.0198 593.43832,283.02958 593.43832,283.02958 C 593.43832,283.02958 585.95678,284.54661 586.47356,286.47526 C 587.63361,290.80464 587.90507,294.00461 593.37149,298.87027 C 596.88087,301.99397 596.94626,307.26366 596.64399,310.72456 C 596.2952,314.718 600.32502,316.52837 601.37859,316.5029 C 609.58675,316.30444 616.5252,312.30947 624.30049,333.7477 C 624.30049,333.7477 525.97251,398.36584 525.97251,398.36584 C 511.37919,404.65088 487.3431,408.41083 486.51587,408.04694 C 481.0335,405.63522 487.38829,399.59897 485.54948,395.56184 C 483.70829,391.51951 481.48887,388.47896 475.2408,389.1561 C 471.91658,389.51637 470.17213,385.24099 468.85719,385.45869 C 463.53667,386.33956 462.18185,380.29482 461.00627,379.21942 C 456.34006,374.95084 451.70794,373.70998 452.76853,369.82927 C 452.76853,369.82927 309.07256,260.29215 309.07256,260.29215 L 312.52674,230.56608 z "
       id="Algerien"
       style="fill:#fdf9d2;fill-opacity:1" />
    <g
       id="Angola"
       style="fill:#fdf9d2;fill-opacity:1">
      <path
         id="path40"
         d="M 620.67562,1020.4599 C 624.26528,1019.5068 628.14794,1014.7446 631.36995,1018.5709 C 634.56898,1014.6149 643.45136,1006.7861 657.80993,1021.4438 L 729.95896,1020.457 L 737.68879,1027.1955 L 783.16635,1033.0777 L 811.93211,1026.6009 L 792.48765,1009.2482 L 793.97567,947.7921 L 828.67107,948.82186 L 824.90065,944.79936 L 828.98705,912.30027 C 828.51998,912.41732 827.98431,912.17904 827.52952,912.34471 C 819.16655,915.39129 810.27588,914.68733 801.30463,914.86655 L 798.18708,920.97994 L 792.49941,916.18813 L 798.84146,907.74014 L 790.28017,890.39367 L 788.97191,851.46454 L 774.14994,852.51651 L 774.15521,845.48687 L 767.57016,844.52444 L 765.84048,847.65102 L 753.73689,847.02854 L 749.13933,864.65 C 743.12999,863.56737 737.58166,862.089 728.58049,866.63805 C 720.62835,864.0819 713.42874,870.0412 702.1736,830.10892 L 697.9149,827.5644 L 652.33246,826.82994 L 631.59454,833.94945 C 636.78885,848.88861 647.75814,857.37286 647.38696,879.46765 L 643.82055,882.88724 C 646.76484,892.86494 649.39074,903.30254 655.94477,908.06617 C 656.59037,910.86048 655.1764,912.89157 654.99269,914.99002 C 654.32056,922.66775 650.28503,944.43163 648.51232,940.55169 C 648.51232,940.55169 641.20335,942.14803 640.54823,948.03423 C 640.22915,950.90121 636.69084,951.3065 635.37611,954.83982 C 631.70031,964.71852 627.8271,980.38798 625.03416,994.6339 C 624.71061,996.28425 622.55782,995.55974 622.29201,997.13389 C 621.52606,1001.67 622.37869,1004.892 622.09276,1009.7062 C 622.00727,1011.1456 620.17868,1008.7341 619.82464,1010.5149 C 619.38683,1012.7171 621.15848,1018.9523 620.67562,1020.4599 z "
         style="fill:#fdf9d2;fill-opacity:1" />
      <path
         id="path42"
         d="M 625.86568,814.64802 L 633.91298,809.78221 C 637.28307,801.86685 640.03428,804.16306 642.70887,807.7236 C 639.288,810.81091 635.73598,813.79621 635.4017,819.28421 C 636.20979,826.89193 632.67911,826.256 630.17005,827.56114 C 629.05723,825.49577 627.47351,823.52458 628.02512,821.12633 C 627.95757,818.85818 627.98966,816.57343 625.86568,814.64802 z "
         style="fill:#fdf9d2;fill-opacity:1" />
    </g>
    <path
       d="M 470.90458,622.05946 L 455.59402,624.1084 L 447.68614,562.11368 C 446.67557,557.38773 441.98164,555.29274 438.39877,552.40415 L 440.29846,542.27247 L 450.21906,534.46264 L 460.56182,534.88479 L 468.16058,522.64234 L 485.25779,525.38634 L 485.36417,538.94237 C 490.21403,544.1527 489.33372,551.14757 485.67581,553.33962 C 486.00973,559.86672 484.81878,565.27915 480.48065,565.13242 C 477.85371,572.1924 475.61285,580.66801 471.86958,583.63477 L 470.90458,622.05946 z "
       id="Benin"
       style="fill:#fdf9d2;fill-opacity:1" />
    <path
       d="M 841.52619,1028.0287 L 830.89729,1034.0009 C 820.40588,1034.061 819.75843,1040.2366 815.82885,1043.5559 L 812.87255,1035.2454 L 773.14434,1038.7267 L 770.87924,1100.2668 L 754.60725,1099.8841 L 753.51123,1144.301 C 757.95587,1149.7552 763.95999,1155.6969 766.96851,1159.6707 C 769.89835,1163.5407 768.02612,1171.0988 765.17999,1178.1579 C 773.05168,1181.4887 780.68783,1181.6518 788.26583,1179.6828 C 789.39287,1176.6921 790.93815,1174.5378 792.9805,1173.3778 C 796.26582,1171.4915 798.9726,1169.0845 799.98232,1165.1501 L 809.88102,1156.8941 C 815.98234,1157.4263 820.67579,1159.8475 825.43899,1163.3388 C 835.52834,1163.4779 841.52973,1161.642 845.7176,1159.5113 L 847.67429,1150.2113 L 905.76755,1103.7868 C 898.45534,1098.4708 894.80559,1099.682 890.62968,1098.7049 C 886.4224,1097.7205 881.23351,1090.2446 882.62972,1077.3919 C 878.60107,1076.598 876.02231,1074.3543 873.80906,1071.745 C 871.28058,1067.5084 867.97801,1067.9163 865.04087,1066.1316 C 860.48763,1059.8002 852.11357,1051.6708 851.46968,1046.783 C 851.15729,1044.4116 849.91004,1044.5389 848.13302,1041.8987 C 846.08142,1038.8506 843.38082,1031.7695 841.52619,1028.0287 z "
       id="Botsuana"
       style="fill:#fdf9d2;fill-opacity:1" />
    <path
       d="M 915.19477,774.40661 L 917.62527,772.1234 L 920.57135,772.27071 L 922.04439,776.39521 L 930.2934,774.77487 L 930.7353,769.61924 L 941.04656,769.03002 C 937.6387,774.95491 942.71626,778.18718 944.87646,781.18258 C 937.96944,797.31969 932.08895,802.98957 926.74965,803.25349 C 919.67277,803.28539 920.59931,805.8763 919.83483,808.13916 C 919.32133,800.96471 919.69393,794.27218 920.145,788.39849 C 920.69666,781.21504 918.30729,775.92435 915.19477,774.40661 z "
       id="Burundi"
       style="fill:#fdf9d2;fill-opacity:1" />
    <path
       d="M 381.25395,567.43989 C 378.07106,567.00979 376.94848,562.73091 374.34447,560.26358 C 369.21115,555.39969 359.51663,559.0141 351.78627,563.78363 C 342.37078,559.07867 341.09471,554.84173 339.35961,550.93576 C 341.24408,545.85453 339.96081,539.17774 342.51594,533.77781 C 344.79787,528.95526 348.76613,524.49105 355.72691,520.66275 L 364.22777,502.83976 C 371.52389,500.42724 378.15016,499.50919 383.86128,497.49742 C 389.3548,495.5623 394.30205,492.39602 397.31351,488.35156 C 408.19692,481.6299 421.70811,473.01033 430.05443,475.14293 C 429.93862,477.88123 429.92611,480.59888 431.61482,482.97628 C 434.44537,484.89796 433.84282,488.08447 433.26527,491.26176 L 450.08577,513.87582 L 456.49164,516.00606 C 457.4278,514.93717 461.99955,509.29194 464.25507,521.73986 L 468.06968,522.55669 L 460.71045,534.96741 L 450.28488,534.41569 L 440.24975,542.25026 L 425.14086,540.45606 C 416.45677,540.30565 415.66045,541.99573 411.963,543.00887 L 378.43269,542.05078 L 381.25395,567.43989 z "
       id="Burkina_Faso"
       style="fill:#fdf9d2;fill-opacity:1" />
    <path
       d="M 739.54996,668.85779 C 736.62672,677.57668 733.14013,683.7646 729.49746,693.24886 C 724.71945,705.68915 725.78211,724.86508 723.34531,741.82744 C 710.70903,747.55572 706.70989,756.73886 700.24255,764.93472 L 695.20051,789.06146 C 686.07839,797.98857 677.59104,809.45482 666.60201,810.91432 C 665.93421,797.45609 654.27585,803.92359 652.99379,809.22236 C 647.44161,812.89085 645.62975,809.07871 642.49281,807.91673 C 638.48071,810.80411 635.5739,814.24413 635.53362,819.11741 C 636.09867,826.90076 632.56226,826.4812 630.00381,828.01756 L 631.49923,833.95052 L 652.3415,826.82027 L 697.922,827.63875 L 702.15293,830.11115 C 712.51415,868.52697 720.91788,864.73952 728.35098,866.61356 C 739.93106,861.76702 743.02744,864.46155 749.1851,864.43493 L 753.66044,846.96404 L 765.82835,847.64948 L 767.38401,844.46208 L 774.14248,845.5144 L 774.24419,852.57627 L 788.91323,851.50191 L 790.43897,890.18431 L 798.80425,907.59467 L 792.4225,916.24238 L 798.23741,921.15897 L 801.34588,914.93852 L 820.58454,914.59746 L 827.5602,912.25897 L 833.59546,912.14983 L 835.78108,920.74793 L 846.99657,917.04213 C 847.59861,919.62495 848.70905,921.51449 850.18991,922.8989 C 853.8296,926.30156 860.6353,930.98503 866.70169,931.07856 C 870.97766,931.14448 874.4192,926.75016 878.16555,927.53828 C 883.27418,934.62101 889.32594,936.6737 895.66397,937.19967 C 900.37428,944.5068 903.53982,953.35872 916.93354,951.98244 L 922.18016,955.62894 L 921.80744,936.93067 C 912.50434,939.92098 906.86045,935.59285 902.05324,929.59139 C 903.00268,922.2118 905.98639,915.51031 909.3856,908.94731 C 909.6817,901.35781 908.66,894.36775 906.79653,886.76796 C 906.38857,885.10418 908.55885,878.90287 911.32916,875.27259 L 941.49693,867.88593 C 938.37346,850.97965 927.38699,847.54618 924.23607,835.57937 C 920.37867,820.92944 918.49381,803.36645 920.54863,786.23269 C 919.97748,778.21047 916.30459,773.96427 910.99933,771.70532 L 920.00015,758.80865 L 927.29208,750.80656 L 928.42306,722.77753 L 938.6485,707.25145 L 955.10292,692.44246 L 945.17997,685.98789 L 945.23027,668.30931 L 924.6749,650.87812 C 922.84062,651.05003 921.99206,652.8648 920.70636,653.95101 C 916.5654,655.23927 912.75249,653.24698 908.79439,652.70656 C 906.664,657.47491 897.88656,654.97123 896.84896,652.25054 C 896.54675,651.45812 897.23529,649.85984 896.03692,649.41347 C 893.44648,645.91698 890.77869,643.55319 888.18826,641.34943 L 879.62913,641.76415 L 876.84172,644.97105 L 873.69275,642.36128 L 871.73147,645.42512 L 867.63718,640.07139 L 849.15701,641.67546 L 849.16337,644.65353 L 840.93916,646.16612 L 839.63864,643.00444 L 818.67758,650.43238 C 812.80848,646.17542 810.65219,648.48734 807.21454,648.34516 L 803.52364,656.37725 C 786.11296,655.7182 778.84073,655.71135 775.97085,651.83177 C 770.45878,657.90432 769.118,650.42016 765.74068,649.55473 C 763.83329,640.67888 758.78753,643.31039 755.27605,640.3162 C 748.77703,644.67836 745.22878,649.04051 742.18903,653.40266 C 742.22716,659.4722 741.26142,664.53785 739.54996,668.85779 z "
       id="Demokratische_Republik_Kongo"
       style="fill:#fdf9d2;fill-opacity:1" />
    <path
       d="M 1141.4036,506.4383 L 1131.5603,513.78406 C 1129.8548,518.74013 1130.791,522.73071 1129.3973,525.08755 C 1123.7499,534.63812 1124.4651,535.37962 1126.2184,537.49701 C 1128.5802,540.34918 1134.8025,538.31585 1138.0245,536.409 L 1143.1666,538.61273 L 1148.8963,529.94473 C 1145.3703,526.95089 1141.8443,528.49988 1138.3184,528.32866 C 1139.2801,524.01096 1144.1277,523.02401 1147.574,520.83599 C 1150.1159,512.97097 1144.7127,507.95408 1141.4036,506.4383 z "
       id="Dschibuti"
       style="fill:#fdf9d2;fill-opacity:1" />
    <path
       d="M 296.32757,654.11917 L 302.72577,654.72265 L 353.57011,640.33233 L 371.81388,642.37701 L 374.45597,631.56909 C 373.90516,622.92301 366.56495,614.07725 376.49266,605.73936 C 377.41566,599.43426 376.90492,592.57159 383.69683,588.54884 L 381.37522,567.28568 C 378.58115,567.34509 377.41362,564.44515 375.94938,561.92792 C 372.69261,556.32908 361.7739,556.98943 351.68492,563.87699 C 346.88174,560.47883 341.28411,558.13992 339.40438,550.84382 C 332.66283,548.35773 327.41353,549.70888 323.07539,553.40302 L 323.8601,546.12874 C 322.80314,543.36396 319.00812,544.15867 314.54317,545.82429 C 313.41853,545.95081 314.20714,547.71726 315.46831,549.88876 C 313.83238,550.50738 312.19646,550.59699 310.56053,550.90989 C 309.42161,552.3116 307.77873,553.79541 305.95924,554.17626 C 301.38728,546.16463 298.73741,547.67226 293.30354,552.07741 C 291.44208,553.58646 290.22443,557.23565 289.46384,560.42159 C 288.60686,564.01126 290.14299,567.47595 294.06027,566.97433 C 294.06027,566.97433 293.69558,571.80999 293.69558,571.80999 C 296.49018,573.06022 295.88807,573.55755 293.28655,576.29591 C 292.11248,577.53174 296.5814,583.19446 296.05036,584.53032 C 296.05036,584.53032 287.4669,582.82268 287.4669,582.82268 C 287.23832,584.17689 286.93559,586.12379 286.81105,587.6188 C 286.81105,587.6188 290.85069,589.34748 290.85069,589.34748 C 290.85069,589.34748 287.69523,597.74658 287.69523,597.74658 C 288.10679,598.40507 283.87921,597.98056 282.84271,598.12219 C 282.84271,598.12219 282.9061,603.38187 282.9061,603.38187 C 287.29142,604.56253 284.89628,614.83642 280.77855,616.50904 C 280.77855,616.50904 286.8163,620.29925 286.8163,620.29925 C 288.14554,619.25856 291.87412,620.16843 294.29456,626.77478 C 294.29456,626.77478 300.3138,630.55796 300.18341,635.3222 C 300.07998,639.10157 297.52624,639.70305 296.83612,642.63197 C 296.83612,642.63197 296.32757,654.11917 296.32757,654.11917 z "
       id="Elfenbeinkueste"
       style="fill:#fdf9d2;fill-opacity:1" />
    <path
       d="M 1053.9891,474.55771 C 1057.0606,476.65937 1060.1321,476.39346 1063.2036,481.20615 L 1071.3641,479.57241 L 1072.9521,477.01345 L 1074.2987,476.65549 L 1076.1045,480.02105 C 1080.2257,477.8374 1083.9418,477.7465 1086.5585,479.81193 C 1088.1524,481.07 1090.5002,479.3211 1092.2109,478.68545 C 1095.3928,481.2638 1098.5499,484.08938 1101.9995,483.99011 C 1113.202,493.24701 1122.8596,503.2763 1131.8541,513.63715 L 1141.5505,506.87905 C 1140.1541,503.17664 1138.3012,499.78658 1131.7269,499.627 C 1131.4012,496.6477 1130.1413,494.00205 1125.9616,492.39917 C 1125.0737,488.82061 1121.9969,488.8902 1119.5727,487.87198 C 1117.5287,482.18459 1112.5462,479.06834 1108.4575,475.16996 C 1103.8469,476.25304 1101.7186,473.19891 1099.5361,470.23514 L 1096.0322,469.55165 L 1093.524,471.09249 C 1090.9014,468.93644 1090.187,465.96253 1089.4554,462.99604 L 1085.6994,461.99399 L 1086.6541,467.20037 C 1084.3815,468.59024 1083.1374,464.83739 1081.9518,460.7925 L 1074.3022,449.68618 C 1069.3142,426.4406 1064.9637,423.59131 1060.5037,417.24297 C 1059.2726,420.13461 1059.0599,423.65024 1057.0399,425.22712 L 1045.7842,431.08552 C 1043.966,434.24371 1041.1514,435.17786 1038.1598,435.14633 C 1033.9435,455.26449 1031.7163,468.24877 1031.9172,484.58135 L 1040.5934,484.57021 L 1041.4341,481.76341 L 1045.4405,481.98795 L 1048.7431,487.21557 L 1053.9891,474.55771 z "
       id="Eritrea"
       style="fill:#fdf9d2;fill-opacity:1" />
    <path
       d="M 609.21898,792.93374 L 579.11136,761.78075 L 571.93329,743.44133 L 578.54992,737.08937 L 580.40258,726.76742 L 588.87187,728.62008 C 589.35866,728.11359 590.1195,727.74412 589.66586,726.76742 L 582.3167,723.00065 L 584.63722,712.4755 L 612.83073,711.02924 L 612.95641,692.89027 L 647.89222,692.89027 L 645.18411,696.70521 L 644.87128,708.53763 C 648.02482,709.74135 650.12915,707.13849 652.17227,703.39936 C 657.54275,702.56323 667.39945,707.41356 664.72117,716.67803 C 660.24725,721.70855 658.21134,726.39463 659.80781,730.67395 C 660.98338,733.82504 662.3976,736.88545 663.30427,741.55657 L 660.59615,766.20255 L 654.97672,770.2661 C 652.45189,766.09414 647.79243,764.59048 641.27559,765.40855 C 639.27157,762.89918 637.30541,759.69316 633.50673,764.75629 L 618.93408,773.7228 L 620.19594,785.77172 L 609.21898,792.93374 z "
       id="Gabun"
       style="fill:#fdf9d2;fill-opacity:1" />
    <path
       d="M 153.04389,488.96347 L 171.39416,488.96347 C 175.35272,483.67664 181.1828,485.40804 187.82383,490.18048 L 198.4191,490.96531 L 200.75459,493.96808 L 193.08084,496.63721 C 187.82848,495.51522 183.08961,493.49463 178.73427,490.80285 C 175.65849,492.62595 172.14234,493.71512 167.72411,493.3008 L 165.72226,496.63721 L 149.777,497.3045 C 149.777,497.3045 153.04389,488.96347 153.04389,488.96347 z "
       id="Gambia"
       style="fill:#fdf9d2;fill-opacity:1" />
    <path
       d="M 443.45742,627.41871 C 441.85643,629.55274 441.65691,634.02254 437.22518,631.43866 C 415.22174,634.11035 406.53868,643.44223 391.19543,649.44402 L 371.78939,642.34333 L 374.43147,631.53541 C 373.88066,622.88933 366.54046,614.04357 376.46817,605.70568 C 377.39116,599.40058 376.88042,592.53791 383.67234,588.51516 L 378.51427,541.98175 L 412.02342,543.01864 C 416.48226,540.65776 421.22819,540.30654 426.02695,540.32507 C 423.39648,545.58143 424.79889,550.58573 431.17212,555.27935 C 436.32277,576.28137 435.6823,596.45608 437.29684,616.95294 L 443.45742,627.41871 z "
       id="Ghana"
       style="fill:#fdf9d2;fill-opacity:1" />
    <path
       d="M 175.19282,537.32485 C 174.61596,539.12246 174.7631,540.01458 177.10069,540.01868 C 178.04493,541.15006 181.37247,533.15922 180.85979,541.2232 L 183.83399,541.54155 C 182.82628,546.02143 185.87656,551.52217 188.78721,552.51489 C 192.53294,553.79243 194.60441,558.129 196.66268,560.0431 L 201.74599,569.39746 C 205.24565,571.78243 210.0691,570.04896 217.59997,559.89237 C 216.78024,556.50771 221.45686,554.70533 235.43634,555.58105 C 246.88723,563.83223 250.32024,573.45791 246.05096,584.40398 C 251.17212,583.16717 254.03806,579.67513 262.57684,581.85594 C 266.83346,587.22016 269.4681,593.14049 265.92827,601.17777 C 270.64311,602.93856 272.34456,608.11515 278.92745,599.39491 C 278.47852,597.39628 280.10448,596.67568 282.17459,598.21122 C 283.42767,599.14072 285.52123,597.7293 287.49754,598.21951 L 290.97481,589.25923 L 286.7129,587.53895 L 287.52649,582.83077 L 296.23948,584.60288 C 295.57281,581.39121 291.23141,577.21251 294.44774,575.02269 C 295.88952,573.53869 295.22305,572.37904 293.75937,571.34203 L 293.94009,567.23476 C 285.49031,566.22459 290.31324,556.87492 293.22876,552.13652 L 288.05012,547.42934 L 287.4561,537.0709 L 283.18593,540.21938 L 281.58903,537.83353 L 287.29181,532.61668 L 279.59154,526.76599 C 280.86431,522.6702 279.14706,517.7562 277.75202,512.64552 L 272.33019,511.46632 C 272.41356,513.8006 271.60543,515.56755 269.22288,516.3326 C 267.19003,515.7219 265.94417,517.02247 265.48335,520.22955 L 255.87421,516.25266 L 248.2451,521.78372 C 249.21199,519.30473 246.73458,517.83419 245.17643,515.98646 L 240.96941,518.81194 C 237.68255,519.91882 237.2705,518.15089 237.30953,515.93189 C 237.9854,515.21066 238.82947,514.65765 239.08895,513.52003 C 227.22122,511.67706 214.79186,512.41756 203.94326,505.8866 L 200.54055,505.86817 L 199.06347,524.27669 L 189.79931,524.52337 C 180.74518,527.80989 176.28819,536.24068 175.19282,537.32485 z "
       id="Guinea"
       style="fill:#fdf9d2;fill-opacity:1" />
    <path
       d="M 148.96,510.46929 L 150.08412,513.55625 C 152.40961,515.14879 156.78899,512.00159 156.52651,519.56637 C 158.64235,520.67215 161.259,518.43916 162.77729,523.52859 C 165.37322,524.83979 171.94773,512.62382 169.56724,530.85486 L 175.40381,537.24998 C 178.86509,531.85455 184.06836,526.44503 189.45399,524.51343 C 189.45399,524.51343 198.98429,524.28071 198.98429,524.28071 L 200.58438,505.92163 L 175.99332,505.83742 C 170.99501,508.26771 165.85926,509.59847 160.41337,508.44811 C 156.94387,509.69054 153.32755,510.34943 148.96,510.46929 z "
       id="Guinea-Bissau"
       style="fill:#fdf9d2;fill-opacity:1" />
    <path
       d="M 694.49608,701.79687 C 690.02001,699.82698 684.66404,695.36405 681.50471,697.12491 L 670.21612,693.09707 L 647.62756,692.89027 L 612.16241,692.89027 L 588.00862,693.15493 L 590.45986,674.62837 L 584.10789,666.42374 L 586.48988,663.51243 L 584.90189,661.13044 L 580.66725,662.45376 C 575.43567,661.80475 573.56313,658.10207 572.3359,653.81274 C 569.5114,652.75074 565.5591,653.13232 565.58133,648.42651 C 571.52304,638.14225 572.81363,624.10132 584.41072,618.38487 L 584.81523,613.85108 L 601.3724,613.06756 C 607.55622,617.03769 605.58191,621.6004 616.08402,620.26859 C 623.35565,607.14295 628.62969,583.03056 638.09961,581.99553 C 643.83402,567.88005 645.53543,547.84949 655.30285,539.64908 C 660.11668,537.92948 664.22223,535.88795 666.00318,532.78977 C 667.04264,530.9815 667.29021,525.13263 666.42453,522.45839 C 665.80235,520.53635 664.6051,522.03357 662.71348,519.53452 L 659.87141,508.69463 L 662.17276,506.83059 L 670.9181,514.24122 C 672.16064,520.30675 675.18297,525.92734 674.59651,532.45012 C 673.96217,541.93715 670.0467,543.29376 679.50593,554.11799 C 681.11802,556.80229 681.4842,559.64232 681.13665,562.57157 L 663.50747,560.82231 C 661.54183,565.63316 657.18298,576.56263 674.55416,580.41892 L 682.7474,605.03279 L 667.47745,630.42927 L 669.60616,648.96722 C 676.05028,660.84756 683.51637,673.2201 693.94398,682.83299 L 694.49608,701.79687 z "
       id="Kamerun"
       style="fill:#fdf9d2;fill-opacity:1" />
    <path
       d="M 1127.1198,757.11759 C 1124.9221,760.54994 1122.5147,763.7202 1117.6848,763.86233 C 1115.8862,768.62649 1113.5636,772.97709 1107.5825,774.43933 C 1100.996,786.3374 1095.9864,800.00956 1087.7583,810.061 L 1064.7466,794.64132 L 1061.131,781.23233 L 991.02451,737.20812 L 1014.0987,701.92979 L 1014.5914,682.16359 L 1006.6659,675.63017 C 1005.6815,668.00205 1003.8974,661.107 997.62029,658.33056 L 1005.7811,651.19795 L 1028.5924,650.1664 L 1042.7844,651.3821 C 1047.6494,653.89491 1050.2315,653.98332 1063.1038,664.71422 L 1088.9461,668.59874 C 1093.0699,667.17852 1096.9004,665.07058 1099.7721,659.32701 C 1106.0108,658.42552 1112.6292,653.02666 1120.7272,660.72779 C 1123.3787,661.66889 1127.6215,661.26972 1131.8252,660.65861 C 1127.0057,668.36281 1121.9378,674.57616 1116.9045,680.99704 L 1117.3314,745.11066 L 1127.1198,757.11759 z "
       id="Kenia"
       style="fill:#fdf9d2;fill-opacity:1" />
    <path
       d="M 621.97168,171.57528 C 621.97168,171.57528 624.46973,181.24846 617.00006,186.55343 C 613.24278,189.22185 600.95639,198.23154 600.95639,198.23154 C 601.99824,203.73136 603.28448,217.48554 591.35157,219.35956 C 583.15105,220.64742 587.44873,227.27735 592.93315,236.26883 C 592.93315,236.26883 593.28144,283.09363 593.28144,283.09363 C 593.28144,283.09363 585.98487,284.51817 586.50165,286.44683 C 587.6617,290.77621 587.74819,293.88369 593.21461,298.74935 C 596.72399,301.87305 596.78938,307.51268 596.48711,310.97359 C 596.13832,314.96702 600.63058,316.68491 601.68415,316.65944 C 609.89231,316.46098 616.36832,312.5585 624.14361,333.99673 C 624.14361,333.99673 662.71055,335.18528 662.71055,335.18528 C 667.20484,336.13646 671.96322,343.02028 671.96322,343.02028 C 671.96322,343.02028 694.05,336.74506 694.05,336.74506 C 694.05,336.74506 824.09552,401.04468 824.09552,401.04468 C 824.09552,401.04468 823.86055,390.60024 823.86055,390.60024 C 838.2373,391.77168 839.88944,390.1161 839.88944,390.1161 C 839.88944,390.1161 831.00207,238.18925 831.00207,238.18925 C 825.77997,231.0221 820.63164,223.99561 826.91056,216.04723 C 826.91056,216.04723 826.95274,207.61716 825.38076,202.83467 C 823.74469,197.85722 828.23207,194.47257 828.23207,194.47257 C 828.16143,188.03077 815.79694,188.52039 809.29094,188.18633 C 800.75445,187.748 795.0182,186.57786 796.50456,180.18363 C 796.50456,180.18363 774.18773,172.17047 765.55083,177.45319 C 760.96236,180.2597 751.28647,184.74381 749.52472,190.49363 C 748.34029,194.35928 749.40049,196.98011 751.70463,200.90578 C 755.73902,207.77938 742.11783,231.37686 726.54707,212.49222 C 726.54707,212.49222 706.09478,206.86148 694.54371,204.33679 C 683.23771,201.86566 675.43577,191.95159 680.12869,185.95123 C 680.587,185.36524 649.44348,176.35549 649.44348,176.35549 C 635.06118,178.58141 624.52968,174.37558 621.97168,171.57528 z "
       id="Libyen"
       style="fill:#fdf9d2;fill-opacity:1" />
    <path
       d="M 296.24246,654.07194 L 281.91761,649.03219 L 231.45202,607.69007 L 247.42513,594.32394 L 247.14555,589.54499 L 254.97314,581.98094 C 257.30289,580.40703 260.13382,581.5061 262.81352,581.7986 C 269.53587,591.59178 267.73396,596.19715 265.89882,601.16623 C 269.71332,602.13546 272.59455,608.48463 278.90632,599.41902 C 278.72987,596.89777 280.2707,596.87439 282.87029,598.39102 L 282.87029,603.20066 C 284.9246,604.06412 286.42852,608.15123 284.43584,611.88823 C 283.37836,613.87139 282.6528,615.90445 280.38362,616.31141 L 286.97641,620.35153 C 288.84865,620.03328 290.46407,618.64247 294.40473,626.96295 C 295.25183,628.1286 305.10123,632.25945 296.92866,642.06369 L 296.24246,654.07194 z "
       id="Liberia"
       style="fill:#fdf9d2;fill-opacity:1" />
    <path
       d="M 1181.5369,1171.4884 L 1229.5284,1069.349 C 1233.1989,1057.8241 1235.3743,1046.2992 1240.791,1034.7744 C 1244.4656,1029.9158 1249.126,1025.4094 1246.193,1018.191 L 1247.2358,1008.2841 C 1247.7743,1005.2894 1249.4245,1005.3519 1251.9286,1007.7627 L 1253.398,1013.7458 C 1255.1816,1013.1797 1256.9321,1012.5722 1256.7932,1009.6029 L 1251.9286,956.66352 L 1242.7536,946.7195 L 1237.45,951.11226 L 1236.07,964.7008 L 1233.0048,967.39736 C 1231.3942,966.90669 1229.0386,964.47905 1229.7335,969.98283 L 1225.1835,974.97647 C 1220.0074,965.37622 1219.2416,973.89366 1220.6434,978.04173 C 1220.5064,979.85342 1221.0149,982.95611 1218.5577,980.12741 L 1214.8499,986.11064 L 1220.122,990.03438 L 1216.9935,990.03438 L 1210.215,994.94314 L 1211.2579,988.99154 L 1204.4794,995.77 L 1206.0437,1004.1127 L 1201.472,1004.297 L 1202.3675,1000.5577 C 1198.1449,997.78094 1194.7093,1003.6608 1190.9225,1005.677 L 1195.0939,1012.4554 L 1189.8797,1012.9768 L 1187.794,1006.7198 L 1179.388,1008.0998 C 1179.6514,1011.0557 1176.2532,1011.9194 1173.1942,1012.9768 L 1172.6728,1008.8055 L 1167.98,1013.4983 L 1159.79,1013.8985 L 1158.1942,1020.9509 L 1147.1233,1036.9622 C 1155.5803,1044.3957 1152.1542,1061.1659 1154.4231,1073.4615 C 1151.3092,1083.3802 1145.263,1090.953 1139.8234,1099.0111 C 1133.4974,1103.1882 1130.6416,1107.3653 1129.6802,1111.5424 C 1128.7577,1115.5504 1126.814,1123.4297 1127.9877,1127.4376 C 1129.3571,1132.1142 1131.9433,1130.523 1132.06,1135.1996 L 1133.599,1142.8707 C 1125.8609,1172.6645 1145.1179,1172.2189 1149.2668,1179.494 C 1151.1541,1178.6351 1153.552,1180.0953 1155.395,1179.1013 C 1159.4881,1176.8938 1164.7211,1171.4391 1170.1901,1173.2515 C 1174.7661,1174.768 1178.1978,1173.033 1181.5369,1171.4884 z "
       id="Madagaskar"
       style="fill:#fdf9d2;fill-opacity:1" />
    <path
       d="M 360.40972,299.17817 L 334.92601,299.86375 L 336.13057,446.91532 L 342.85092,449.28878 L 338.14022,463.66571 L 263.03713,459.41727 L 254.39367,465.47572 L 249.67092,463.73101 L 246.39976,454.02212 L 242.10651,452.87506 C 233.64871,471.36384 232.35159,469.21301 229.21106,472.37555 C 229.72354,474.26645 228.49064,476.0709 229.09878,477.80273 C 231.0015,483.22121 232.19536,488.71816 229.33041,491.06279 C 233.24276,494.54548 238.29067,497.31844 239.74234,502.33905 C 240.02089,508.74225 239.6716,513.68049 237.94915,515.41468 C 236.24199,517.12469 238.26961,521.11221 241.81802,518.12614 L 245.26877,516.02865 C 246.40322,517.83625 248.90511,518.82337 248.53954,521.53098 L 256.14565,516.33043 L 265.43234,520.18963 C 266.37604,518.76637 265.19193,516.63383 268.80484,516.1003 C 270.70182,516.15232 272.03564,514.79643 272.59504,511.50447 L 277.69353,512.74179 C 279.06497,517.54392 280.73746,522.38907 279.85602,526.86936 L 287.3794,532.54961 L 281.63388,537.80949 L 283.22445,540.21155 L 287.4157,537.41762 L 288.03742,547.48004 L 293.33184,552.34484 C 295.50252,550.19007 298.96713,547.4742 301.5888,548.83616 C 304.06047,550.1202 305.21193,555.1451 307.54296,553.57627 C 309.98067,551.93564 310.43839,550.40038 314.21596,550.40517 C 317.06132,550.40877 311.77654,545.48993 315.32035,545.59246 C 316.96622,545.64007 319.53768,543.70209 322.38251,544.45003 C 325.10982,545.16706 321.71825,555.32645 323.71713,553.14544 C 328.67316,547.73785 338.54822,549.83321 339.50221,551.04094 C 342.26729,541.14098 336.86418,532.01159 355.83086,520.58317 L 364.20174,502.95148 C 375.36147,498.26967 387.3387,500.40025 397.5991,488.22399 C 410.49902,479.60746 423.3892,473.12729 430.35538,475.05963 L 443.37786,475.07327 L 450.69643,468.828 L 485.72553,469.26587 C 486.61286,467.54558 487.10088,466.28141 491.94057,463.9024 C 491.97797,459.67232 495.77096,459.44002 498.40732,458.1078 L 499.7816,406.19763 L 486.63194,408.09449 C 481.43849,404.71836 485.80669,403.64217 485.85396,396.1338 C 482.89371,389.46686 479.12874,388.4636 475.43071,389.12105 C 472.18269,389.69849 470.7207,385.09254 469.01633,385.43971 C 466.08162,386.03751 462.86675,383.22111 460.92049,379.07628 C 460.25918,377.66792 458.44225,377.02573 457.21268,376.18148 C 454.48024,374.30533 451.98899,372.8633 452.69563,369.93739 C 452.69563,369.93739 390.14552,322.16092 360.40972,299.17817 z "
       id="Mali"
       style="fill:#fdf9d2;fill-opacity:1" />
    <path
       d="M 994.31306,894.7296 L 1004.2719,927.55968 L 1001.3329,956.70687 C 1007.2428,962.03118 1013.1223,966.35113 1021.4162,980.19017 C 1022.4574,981.92751 1023.547,986.26917 1023.1803,989.75058 L 1019.5711,1005.1603 L 1010.555,1009.0862 L 1011.2548,1022.566 L 1006.4668,1022.6396 C 1008.9333,1016.3108 1006.5726,1017.4918 1005.5094,1017.1078 C 998.97266,1012.9802 996.52431,1006.904 995.32217,1001.4551 C 1000.6689,993.22423 1000.3524,986.61128 999.7419,980.24857 L 990.89512,978.61326 C 984.06486,980.282 982.73657,977.77619 982.07749,975.49778 C 978.37129,966.81709 976.66808,970.16216 975.30904,969.57516 L 970.03297,962.31289 L 979.28655,945.15698 L 986.50504,944.34681 L 981.59207,937.94582 L 985.89382,915.6342 L 989.98929,912.61416 L 978.15976,889.23474 C 981.59967,892.24973 985.40308,893.27736 994.31306,894.7296 z "
       id="Malawi"
       style="fill:#fdf9d2;fill-opacity:1" />
    <path
       d="M 310.47681,250.4575 L 313.05357,230.71349 L 328.52815,222.72661 L 332.02241,223.72497 L 337.51338,219.23235 L 346.63818,219.89256 L 347.13736,215.5395 C 366.21655,216.47159 370.085,211.3695 373.45433,206.25368 L 389.42809,199.76434 L 395.41825,199.76434 L 392.42317,195.7709 L 393.42153,192.07804 L 392.92235,187.28484 C 399.16976,186.46703 406.8744,187.4697 406.92085,180.93506 L 432.85674,181.29469 L 436.351,173.30781 C 431.39757,171.4898 430.51128,164.3269 431.17488,156.71584 C 431.66764,151.06422 431.22057,138.20707 431.22057,138.20707 C 429.51058,136.14351 427.38067,134.20035 426.88805,131.23714 C 422.72878,130.46995 417.62417,130.37801 415.88462,127.88244 C 409.84666,126.84517 403.86463,126.29409 398.46505,126.83731 C 388.5809,127.8317 384.51232,124.2702 380.44285,114.90376 C 370.92362,114.28307 360.82943,134.73952 353.48714,144.85456 C 335.7301,149.79256 322.87941,157.79703 314.05193,168.31601 C 315.23106,172.59208 313.15882,174.23888 308.84958,177.06231 C 306.06383,178.88754 296.26651,194.5265 299.57571,203.2586 C 299.61658,210.0808 294.29927,221.45095 279.019,229.01621 C 279.019,229.01621 271.89441,235.67546 260.6259,239.35204 C 255.87143,240.90329 244.84944,242.13942 241.51467,245.21481 L 310.47681,250.4575 z "
       id="Marokko"
       style="fill:#fdf9d2;fill-opacity:1" />
    <path
       d="M 228.04591,355.64762 C 230.09938,340.95095 220.96327,320.29619 249.51065,319.70667 L 255.50081,275.27966 L 306.41715,279.77228 C 306.41715,279.77228 309.17293,259.80703 309.17293,259.80703 C 309.17293,259.80703 360.48767,299.21147 360.48767,299.21147 C 360.48767,299.21147 334.92877,299.83244 334.92877,299.83244 C 334.92877,299.83244 336.22477,446.99039 336.22477,446.99039 C 336.22477,446.99039 342.69331,449.29556 342.69331,449.29556 C 342.69331,449.29556 338.33311,463.59012 338.33311,463.59012 C 338.33311,463.59012 262.99987,459.44016 262.99987,459.44016 C 262.99987,459.44016 254.41259,465.51241 254.41259,465.51241 C 254.41259,465.51241 249.77755,463.99185 249.77755,463.99185 C 249.77755,463.99185 246.50297,454.01445 246.50297,454.01445 C 246.50297,454.01445 241.94802,452.88715 241.94802,452.88715 C 241.94802,452.88715 233.63513,473.39605 228.34211,471.32176 C 228.34211,471.32176 225.98944,468.76809 223.32702,466.01688 C 220.9815,463.59315 218.42499,461.19248 216.61214,457.77301 C 214.09136,453.01823 212.34629,445.385 208.87228,445.93061 C 201.48006,447.0916 195.84678,437.28835 195.84678,437.28835 C 195.84678,437.28835 187.23279,434.8984 181.05934,436.61285 C 173.07863,438.82919 164.06555,436.52862 162.45676,437.57292 L 169.78222,417.22342 L 170.52872,393.5024 L 166.06777,386.37668 C 168.45328,382.15989 175.73946,378.27132 170.97738,365.6456 C 170.43265,364.20136 167.83888,364.98037 167.83888,364.98037 L 164.76197,355.69881 L 168.54282,351.90909 L 228.04591,355.64762 z "
       id="Mauretanien"
       style="fill:#fdf9d2;fill-opacity:1" />
    <path
       d="M 924.81155,986.01116 L 928.34469,995.25167 L 928.07291,999.87193 L 940.303,1000.7912 L 968.95592,1011.941 C 971.88861,1027.954 970.01008,1041.3428 965.35845,1053.219 C 965.23267,1055.5442 964.45721,1057.765 964.73903,1059.8949 C 965.26762,1063.8897 967.23689,1069.3953 965.00123,1073.9787 C 959.24609,1085.7776 953.8701,1097.5888 952.48419,1098.3558 C 947.73225,1100.9857 941.82585,1108.6756 941.6619,1114.8348 L 944.52198,1185.5759 L 955.35481,1186.2745 L 958.24047,1176.257 L 953.89199,1177.8877 C 954.55727,1173.9249 953.64351,1169.962 957.80584,1165.9992 L 992.56915,1152.2589 C 996.87312,1149.0989 999.54641,1144.3083 1002.5406,1139.8385 L 998.4819,1138.4359 L 1005.6804,1111.268 L 1001.9821,1110.0121 L 998.99086,1087.1473 C 989.14345,1081.1079 994.84028,1071.7216 998.814,1069.5259 L 1019.8262,1051.6702 L 1021.56,1055.2287 L 1029.354,1046.6184 L 1027.6353,1043.9635 L 1032.7019,1043.0359 L 1034.2066,1038.6759 L 1059.9559,1026.0043 L 1066.3859,1026.0711 C 1071.2625,1022.3782 1075.1782,1018.4109 1082.2871,1015.3558 L 1081.8329,1011.5387 L 1090.4119,1004.9012 C 1092.4705,1002.7882 1094.2386,999.6587 1096.9324,999.76927 L 1097.3079,995.51542 L 1095.6761,993.70707 L 1100.3705,986.66777 L 1101.5592,981.96984 L 1100.8097,978.89856 L 1097.9351,974.52739 L 1098.9301,957.31308 C 1096.7369,955.18233 1097.9475,953.73234 1099.1212,952.27496 L 1098.554,933.27151 L 1105.4564,921.64376 C 1105.6338,918.4582 1105.8922,915.27263 1104.7298,912.08706 C 1094.1386,918.38944 1076.4151,929.36258 1067.4588,923.73382 C 1063.5342,924.21387 1059.1303,924.2061 1055.3339,929.14371 C 1052.1102,928.8423 1049.1974,928.22986 1045.3415,928.56053 L 1032.6643,930.8559 C 1030.3633,928.1067 1028.052,925.37694 1022.7165,928.35951 L 1004.222,927.75672 L 1001.3335,956.6685 C 1010.4551,964.00911 1018.4862,973.45341 1022.4956,983.12865 C 1024.9371,989.02024 1020.5158,997.51319 1019.6627,1005.0358 L 1010.487,1009.0061 L 1010.9658,1021.8861 L 1006.4465,1022.5713 C 1007.5461,1019.8807 1008.7632,1017.1353 1004.8187,1016.7986 C 999.82609,1012.5666 996.00184,1007.7954 995.4743,1001.5026 C 999.29594,995.28353 1000.8353,988.24936 999.82278,980.30379 L 990.92483,978.67331 C 987.46185,979.51368 983.44466,979.44239 982.54081,976.68333 C 980.13871,969.35068 977.81314,968.96339 975.09081,969.70437 L 924.81155,986.01116 z "
       id="Mosambik"
       style="fill:#fdf9d2;fill-opacity:1" />
    <path
       d="M 620.73312,1020.4579 C 621.44368,1029.7769 622.31403,1039.0399 630.85845,1045.6171 L 666.15479,1108.4726 L 667.05272,1137.3176 L 673.3514,1150.6666 C 673.70568,1155.865 671.7879,1161.0634 674.98224,1166.2618 L 679.36698,1190.813 L 698.53448,1212.1577 C 710.44263,1199.3686 714.77616,1209.6984 717.75952,1217.8901 C 725.04745,1217.1996 732.33538,1216.5278 739.6233,1217.7937 C 743.03739,1214.7086 746.52809,1211.6543 751.904,1209.354 L 754.70766,1099.7988 L 770.91627,1100.3245 L 773.24431,1038.6316 L 812.82087,1035.1395 L 815.86233,1043.4128 C 818.71159,1040.2848 822.60903,1034.5261 828.43263,1034.261 C 833.69335,1034.0215 836.26653,1030.611 841.44566,1027.855 L 837.65322,1022.3353 L 812.17001,1026.5784 L 783.72045,1033.1995 L 737.67296,1027.054 L 729.96292,1020.5705 L 657.44344,1021.4091 C 653.98041,1016.822 640.85979,1006.3773 631.37531,1018.6935 C 628.1678,1014.8631 624.29658,1019.6609 620.73312,1020.4579 z "
       id="Namibia"
       style="fill:#fdf9d2;fill-opacity:1" />
    <path
       d="M 499.75205,406.34817 L 498.31762,458.29795 C 496.02145,459.63173 492.82738,458.2718 491.95412,463.87433 C 489.39968,465.35596 486.25297,466.3934 485.68692,469.36633 L 450.57838,469.02722 L 443.44496,475.02144 L 430.16316,475.09356 C 429.77934,477.95407 429.8469,481.53202 432.10796,483.30183 C 434.11419,484.87218 433.81884,488.1785 433.31057,491.09129 L 450.1075,513.50128 L 456.20076,515.77867 C 459.57846,512.81545 462.65724,511.94465 464.1883,521.90791 L 484.99077,524.86016 C 486.44196,521.53464 486.0927,516.92309 489.86199,515.25336 C 495.52156,512.05327 494.59625,506.45868 496.61531,501.93477 C 501.2354,499.73173 498.28073,496.59846 522.6937,496.82612 C 529.00703,500.79442 535.10038,502.12309 541.74805,510.10341 C 541.74805,510.10341 546.64417,510.30332 546.64417,510.30332 C 546.78406,508.6296 551.72219,505.18893 554.74083,504.61462 C 558.01187,502.83544 563.8271,505.93261 571.57705,512.73801 L 585.38274,513.9742 L 598.64189,504.46531 L 621.8213,503.87118 C 625.31796,505.23751 627.90739,508.36349 633.06639,507.07007 C 636.77327,502.89778 643.86168,498.91568 652.00412,495.48265 C 650.74104,491.7917 649.31858,488.18906 650.49706,483.45173 C 652.48389,481.7819 654.9253,481.518 655.16523,475.30622 L 683.17063,444.22968 L 688.36439,394.67345 L 692.31964,384.7081 C 684.31357,381.42983 678.83075,378.32361 677.07364,367.27212 C 676.1166,361.25279 677.48226,353.48217 676.88742,342.24203 L 671.90095,343.0976 C 669.16362,339.87576 666.51323,336.4221 663.01219,335.23684 L 623.74681,333.80701 L 524.26314,399.3946 L 499.75205,406.34817 z "
       id="Niger"
       style="fill:#fdf9d2;fill-opacity:1" />
    <path
       d="M 565.5474,648.6129 L 562.18337,648.45591 L 561.07917,654.34495 C 555.31282,654.48411 549.54647,653.87496 543.78012,651.7685 C 530.00534,660.34378 519.09536,658.94161 513.46546,639.15022 C 509.18554,628.1033 502.25829,624.51704 494.92227,622.08274 L 470.95471,622.2204 L 472.00214,583.96652 C 475.80582,579.12682 478.17233,572.37089 480.30854,565.30789 C 486.71709,563.73043 485.34919,558.09569 485.64198,553.3274 C 492.04806,549.08393 487.84922,542.42661 485.21195,537.96645 L 485.62586,525.52222 C 486.17067,521.99387 485.36837,518.17735 490.429,514.93737 C 492.3991,512.51591 494.36919,513.69512 496.33929,501.85096 C 499.85112,499.1522 503.56016,496.4957 522.4739,497.09735 C 529.08518,500.55404 537.50222,503.36009 542.0915,510.483 L 546.34834,510.27916 C 549.09497,508.34415 549.94355,504.93287 554.93749,504.74577 C 557.78537,504.68586 557.95318,501.94588 571.46678,512.55169 L 585.55555,513.86842 L 598.63933,504.43682 L 622.09205,503.97935 C 625.51402,505.40522 628.31767,508.53149 632.75342,507.1695 C 638.61597,501.33248 645.72697,498.31413 652.41336,495.49788 C 655.08571,499.78183 658.80498,503.96871 662.14005,506.64009 L 659.91418,508.41896 L 662.73392,519.76445 C 664.04415,520.75612 666.42957,521.10268 666.48978,522.84437 C 669.00735,533.97294 662.77124,537.41566 655.39354,539.87268 C 646.0002,547.18255 643.63979,567.23959 638.24303,581.79327 C 627.74835,584.89272 624.2538,604.29897 616.22944,620.25534 C 608.48814,621.76643 606.52867,617.99834 601.67174,612.75617 L 584.80421,613.84877 L 584.3624,618.35909 C 573.59223,623.98709 571.11274,636.7413 565.5474,648.6129 z "
       id="Nigeria"
       style="fill:#fdf9d2;fill-opacity:1" />
    <path
       d="M 625.92501,814.62964 L 609.11876,792.93374 L 620.36704,785.78778 L 619.04371,773.61317 L 632.8063,765.27622 C 635.15533,763.42962 636.91889,758.94843 641.14326,765.54088 C 648.45317,764.67432 652.71306,766.55278 655.03818,770.17253 L 660.86082,766.20255 L 663.24281,741.98568 C 663.13127,733.64306 653.79459,728.19461 664.96313,716.31315 C 666.84115,708.50403 659.85505,703.1564 652.12687,703.47688 C 650.23638,705.89403 649.52582,709.78609 644.86852,708.74473 L 645.11324,697.12491 L 647.89222,692.89027 L 670.38877,693.15493 L 681.25722,697.01961 C 685.31206,694.94738 690.74167,701.10215 694.51482,701.73385 L 693.94398,683.09766 C 702.46935,672.23661 708.75067,668.99412 715.77886,667.35007 L 726.4978,672.24638 L 739.73107,668.54107 C 736.48195,677.23504 732.93924,684.37223 729.64792,692.90276 C 724.00676,707.52368 725.89073,725.3454 723.32182,741.72101 C 711.1026,747.07757 706.67205,756.48424 700.29594,764.87922 L 695.02535,789.13485 C 683.52268,801.45919 673.37134,811.3368 666.81579,810.79864 C 666.77154,803.8707 659.25327,797.72662 653.11466,809.11708 C 648.83405,811.95128 645.75444,810.48028 642.46658,807.35799 C 637.70909,801.0737 636.14436,806.39946 633.9973,809.60765 L 625.92501,814.62964 z "
       id="Republik_Kongo"
       style="fill:#fdf9d2;fill-opacity:1" />
    <path
       d="M 938.76335,746.86082 L 931.39817,752.75296 L 928.89401,752.75296 L 927.42097,750.69071 C 920.88957,757.20844 916.00815,764.55115 910.99661,771.8288 C 912.80271,772.25946 914.24782,773.14137 915.26842,774.55391 L 917.69893,772.27071 L 920.4977,772.49166 L 921.89708,776.24791 L 930.36705,774.55391 L 930.7353,769.47194 L 941.26752,768.88272 C 942.81337,766.77137 944.18668,764.66001 946.4968,762.54866 L 938.76335,746.86082 z "
       id="Ruanda"
       style="fill:#fdf9d2;fill-opacity:1" />
    <path
       d="M 941.58653,867.91216 C 941.58653,867.91216 911.14363,875.41869 911.14363,875.41869 C 909.16403,879.03799 907.76185,881.12725 906.99386,885.22776 C 906.79485,886.29036 907.71173,888.47665 908.03472,891.46541 C 908.67419,897.38264 910.67806,907.7581 908.8643,910.55812 C 904.61376,917.11997 901.7395,929.23685 901.9818,929.58399 C 904.40821,933.06044 909.33413,936.60998 912.2384,937.37727 C 916.2431,938.43528 920.73937,937.93523 921.71343,936.43138 L 922.19164,955.64688 C 920.6309,954.35926 918.39229,953.45731 917.28662,952.05592 C 910.89788,951.51125 905.13493,954.93046 895.7408,937.16042 C 889.56666,936.62947 883.46421,934.82914 878.18965,927.4863 C 875.6322,926.81663 871.36326,930.31598 867.51474,931.17817 C 856.50603,930.12492 853.34215,924.90477 850.53263,923.29959 C 848.62385,921.53202 847.4161,919.47234 847.04446,917.06429 L 835.71575,920.822 L 833.68078,912.05853 L 828.99457,912.21144 L 824.96555,945.03467 L 828.67278,948.77319 L 794.11438,947.87934 L 792.44959,1009.3917 L 811.69861,1026.4039 L 837.78557,1022.3101 L 841.60278,1028.0433 L 843.25585,1031.906 L 863.67094,1032.1215 L 866.45796,1034.5703 L 870.27024,1033.5659 C 881.277,1019.1722 891.30974,1015.4929 901.44319,1010.7057 L 901.85883,1001.146 C 909.85444,996.19616 918.47744,993.41368 928.45975,995.32703 L 924.71899,985.86118 L 975.427,969.97303 L 970.02368,962.07588 L 979.16775,945.03467 L 986.23362,944.20339 L 981.66159,937.9688 L 985.81798,915.52427 L 989.97437,912.6148 L 981.66159,896.40486 L 977.8751,888.8978 L 958.43259,882.37485 C 951.82062,872.97591 950.27231,874.7445 948.21271,875.29334 L 941.58653,867.91216 z "
       id="Sambia"
       style="fill:#fdf9d2;fill-opacity:1" />
    <path
       d="M 162.69518,437.05251 C 159.70478,442.19179 157.67283,444.87482 157.58633,449.04736 C 157.38861,458.58431 147.86993,461.62401 143.10602,468.55709 C 147.53828,475.01882 152.36351,481.36497 153.11525,488.90921 L 171.46552,488.90921 C 175.42408,483.62238 181.25416,485.35378 187.89519,490.12622 L 198.49046,490.91105 L 200.82595,493.91382 L 193.1522,496.58295 C 187.89984,495.46096 183.16097,493.44037 178.80563,490.74859 C 175.72985,492.57169 172.2137,493.66086 167.79547,493.24654 L 165.79362,496.58295 L 149.77884,497.25024 C 148.83459,501.58757 147.96342,505.92491 148.77792,510.26224 C 152.63281,509.90651 156.38536,510.47185 160.44539,508.26986 C 165.91712,509.67145 171.11236,508.4464 176.13592,505.59049 L 203.81117,505.92176 C 214.21214,511.87057 227.18516,512.4836 239.19468,513.26501 C 239.76128,506.99734 243.26465,500.76254 229.60904,491.24469 C 231.70479,488.54631 230.9203,482.33963 229.08626,477.85672 C 228.04838,475.31986 230.03875,474.52263 229.0955,471.81517 C 227.79824,471.09297 226.23465,469.04218 224.04969,466.97981 C 221.60496,464.67225 216.64299,458.04343 216.64299,458.04343 C 213.73933,449.33128 209.99252,445.76681 209.99252,445.76681 C 201.07801,447.22563 195.57227,437.19027 195.57227,437.19027 C 187.96183,435.13426 183.98231,436.6487 180.66979,436.82219 C 172.02377,437.27503 170.26449,438.34216 162.69518,437.05251 z "
       id="Senegal"
       style="fill:#fdf9d2;fill-opacity:1" />
    <path
       d="M 231.42879,607.77067 L 218.30093,601.10293 C 216.84031,597.03985 212.7936,594.82397 208.66477,592.66676 C 209.05298,586.92684 205.24537,585.62046 202.70127,583.54594 L 201.83512,569.8436 C 207.59183,572.08401 212.6871,566.27499 217.70278,559.80056 C 216.4534,554.7554 227.88411,555.27263 235.51739,555.41992 C 243.11981,562.03841 251.08071,568.38532 246.17696,584.47819 C 249.42953,583.25277 252.49871,581.84395 256.10642,580.97367 L 247.05309,589.44291 L 247.34513,594.26162 L 231.42879,607.77067 z "
       id="Sierra_Leone"
       style="fill:#fdf9d2;fill-opacity:1" />
    <path
       d="M 843.17409,1031.9474 L 848.23562,1042.2005 C 849.89747,1044.1313 852.06487,1045.9338 851.91446,1049.0728 C 855.8648,1055.8266 860.79116,1060.6282 865.29719,1066.2706 C 868.75307,1067.3538 871.81029,1068.9157 873.91054,1071.6934 C 876.03212,1074.2524 878.44489,1076.8333 882.70216,1077.4915 C 880.90594,1087.9141 885.58261,1096.89 890.47884,1098.7588 C 896.27857,1099.0221 901.76528,1100.1027 905.92301,1104.0674 C 917.72142,1105.4745 919.09997,1107.1132 921.89204,1108.7204 C 931.55634,1105.4895 936.06148,1110.8833 941.55585,1114.6023 C 942.87135,1106.7241 947.5124,1102.314 952.76648,1098.1596 C 956.91404,1092.1183 960.71968,1082.6578 964.68209,1074.7649 C 967.6205,1069.8709 965.25222,1064.6976 964.54233,1059.6115 L 965.32163,1053.1232 C 972.46115,1035.2181 970.27132,1024.5307 969.11147,1011.9336 L 940.12362,1000.7452 L 927.94391,999.87633 L 928.34729,995.74938 C 918.0211,992.40332 909.61783,996.91307 901.91777,1001.1612 L 901.56864,1010.6684 C 877.85546,1021.2472 876.59521,1026.9964 870.06706,1033.6474 L 866.52995,1034.7436 L 863.6473,1032.1927 L 843.17409,1031.9474 z "
       id="Simbabwe"
       style="fill:#fdf9d2;fill-opacity:1" />
    <path
       d="M 1148.9812,529.59516 L 1143.1071,538.75165 C 1137.4003,546.98302 1153.0542,559.56565 1165.9315,571.58267 L 1215.6859,587.54454 L 1231.7253,586.87703 L 1183.4013,642.16834 L 1163.8731,641.78226 C 1157.6638,645.26805 1151.5938,648.83749 1147.1464,653.38044 C 1142.0658,656.54363 1136.3843,658.50488 1130.9843,661.02943 C 1127.6357,668.34384 1122.0581,674.32082 1117.0291,680.62701 L 1117.1844,744.79178 L 1126.9701,757.1026 L 1149.4841,731.88846 L 1187.2166,696.27309 L 1191.5564,695.75312 L 1207.368,680.79566 L 1208.0131,677.80259 C 1216.6905,671.21125 1227.4974,660.1489 1230.1892,654.68667 C 1234.9596,645.02476 1241.1065,636.83949 1247.9598,628.9977 L 1262.8164,586.09158 C 1265.7064,583.30521 1267.8729,579.55415 1269.6906,575.338 C 1270.4418,570.8374 1273.1329,569.24651 1275.1999,566.71944 L 1276.8925,545.23334 C 1281.7061,545.9086 1279.3847,536.39094 1279.6556,530.57658 C 1277.7967,528.91888 1275.7243,526.18576 1279.612,523.99034 L 1279.5765,518.63476 C 1276.0813,518.92523 1272.5632,514.93206 1269.1278,517.62876 C 1264.8263,521.67549 1259.089,524.57098 1252.5467,525.11133 C 1245.2708,525.71228 1239.3415,529.92153 1236.2922,528.88903 C 1231.3625,532.97839 1225.0816,534.36549 1216.9277,532.00628 C 1211.4855,536.84833 1207.9186,543.13709 1190.4407,538.69443 L 1179.3012,546.65944 C 1162.1138,551.32011 1157.6351,537.4065 1148.9812,529.59516 z "
       id="Somalia"
       style="fill:#fdf9d2;fill-opacity:1" />
    <path
       d="M 838.22722,357.58652 L 839.81049,390.70284 C 834.19454,391.12832 828.4121,391.12643 823.85105,390.49701 L 824.10694,401.03721 L 825.64258,463.63351 L 807.74187,464.60195 L 807.9475,471.2767 L 797.70254,484.24276 L 798.36504,493.46491 L 794.93287,495.05339 C 794.60502,500.80991 793.91657,505.84527 791.49875,507.42186 L 791.65297,514.88041 L 799.10589,513.32929 C 800.60923,521.7132 800.96709,530.51366 808.00465,536.88513 L 808.90926,542.48385 L 805.577,542.94246 C 811.21734,549.96321 817.71758,556.55401 821.41116,564.54815 C 814.95196,584.55685 824.67435,580.96741 830.01681,583.76536 C 832.11233,586.69959 832.97605,590.29078 842.66146,589.17707 L 848.27922,594.30391 C 847.07118,602.79377 859.61455,607.46378 866.9673,613.57563 L 873.83904,627.06919 C 879.72841,629.93023 886.78962,631.15069 887.6657,641.03035 C 891.5866,643.25766 893.12064,646.54281 896.00155,649.42571 C 897.32598,650.75105 896.1165,652.00743 897.43151,653.03986 C 901.16036,655.96742 907.86077,656.69842 908.78383,652.49124 C 908.78383,652.49124 915.0059,654.8281 919.50367,654.28512 C 922.29528,653.94812 922.04873,651.31555 924.82524,650.72582 L 944.81979,668.21459 L 948.38847,665.61917 C 962.1154,668.8032 975.84233,666.97792 989.56925,664.99455 L 1005.9386,650.99122 L 1028.6056,650.15996 L 1028.826,638.3879 L 1017.1761,634.35669 L 1009.1142,616.50587 L 997.42462,606.6341 C 999.46727,603.48837 993.87163,600.34263 991.15806,597.19689 C 987.47962,598.19716 983.49876,597.38294 979.29269,595.21744 L 982.29919,591.38233 L 982.24667,585.84829 L 992.94749,585.67915 C 995.03121,584.36854 997.29963,583.79677 998.89194,580.52058 L 998.52765,550.04151 L 1003.5455,542.57416 L 1008.6343,542.63348 L 1011.1303,529.71523 C 1017.1644,522.29074 1019.5571,512.78554 1029.2468,507.44997 L 1032.2836,483.05465 C 1030.5196,465.82751 1035.7521,450.93254 1038.25,435.12603 C 1040.7453,434.09849 1043.6077,436.00736 1045.635,431.23542 L 1056.7999,425.55844 C 1059.001,424.09287 1059.7344,420.67023 1060.382,417.13313 C 1058.87,413.75363 1056.6927,414.36607 1054.6874,413.94663 C 1051.394,407.62051 1045.938,407.06134 1041.1952,404.60028 L 1034.5658,364.51692 L 1029.3275,358.93423 C 1030.6679,344.56644 1013.7581,342.04466 1005.4593,333.4604 L 1000.0105,338.98911 L 995.55306,337.96737 L 993.43466,347.01701 L 983.78594,349.55452 L 982.9294,356.89021 L 974.37972,357.85333 L 970.3193,353.61107 L 838.22722,357.58652 z "
       id="Sudan"
       style="fill:#fdf9d2;fill-opacity:1" />
    <path
       d="M 698.53442,1212.1679 L 725.37837,1266.1835 L 725.72955,1278.5329 C 724.37272,1281.5033 722.14804,1281.5906 719.65891,1281.1102 C 718.65042,1282.5268 717.70591,1284.3616 719.9163,1285.7422 C 723.24305,1291.6477 725.64976,1298.8293 729.88669,1303.8896 C 733.3684,1308.0479 738.53258,1310.2221 742.62865,1313.8099 L 753.2876,1314.6624 C 755.48191,1313.1205 753.48719,1311.0201 761.43741,1310.2456 L 777.05079,1310.1454 C 781.97956,1308.2101 776.43411,1303.3347 792.51027,1304.5285 C 795.15099,1304.862 796.29528,1307.7609 800.43728,1305.5209 C 807.90023,1304.3179 815.02581,1307.1633 822.29732,1308.2576 C 824.4529,1306.5361 823.65,1303.607 835.75681,1305.9472 L 836.99587,1301.2379 L 851.18491,1301.4605 L 935.29878,1223.2941 C 948.63925,1217.7572 951.58818,1201.603 955.32622,1186.255 L 944.76634,1185.5472 C 944.65662,1184.2687 934.62765,1191.4428 933.35472,1191.5846 C 927.93218,1192.1885 924.80257,1190.4355 925.58154,1180.9356 C 926.16222,1173.8539 933.74806,1168.215 935.75308,1166.9042 C 938.42769,1165.1556 941.09633,1171.7433 943.75902,1170.0025 C 943.75902,1170.0025 942.81756,1139.8804 941.69138,1114.6822 C 936.02786,1111.2363 931.96654,1105.3143 921.87623,1108.7097 C 916.57961,1104.7513 911.28299,1105.1568 905.98637,1103.9204 L 847.79598,1150.0707 L 845.66048,1159.7133 C 839.0491,1163.2089 832.43771,1162.7337 825.82633,1163.4367 C 820.81928,1159.6288 815.42255,1157.3796 809.5528,1157.0225 L 799.84592,1165.5194 C 798.93843,1170.1977 796.21816,1170.6461 794.13428,1172.5795 C 790.83132,1174.4945 789.10498,1176.9351 788.38781,1179.712 C 778.60581,1182.1304 771.74413,1180.5333 765.37178,1178.2634 C 766.60005,1172.5439 770.27858,1168.8292 767.21078,1159.5948 L 753.67935,1144.4601 L 751.91952,1209.4572 C 747.82666,1211.2292 743.7338,1213.9201 739.64093,1217.8482 C 732.8188,1217.2647 727.14994,1216.3168 717.68833,1218.0251 C 716.15491,1210.8507 709.59881,1198.9836 698.53442,1212.1679 z "
       id="Suedafrika"
       style="fill:#fdf9d2;fill-opacity:1" />
    <path
       d="M 943.84924,1170.5465 L 944.60549,1185.259 C 940.2076,1187.459 936.93884,1189.659 933.19298,1191.859 C 929.08262,1191.7568 926.45075,1190.6785 925.79982,1187.3884 C 924.76298,1182.1477 925.35381,1178.5777 928.26274,1174.1726 C 930.37767,1170.9699 934.19935,1166.9278 936.76431,1166.499 C 938.08322,1166.2785 940.03103,1168.2578 941.16798,1169.9278 L 943.84924,1170.5465 z "
       id="Swasiland"
       style="fill:#fdf9d2;fill-opacity:1" />
    <path
       d="M 991.02639,737.11753 L 984.96122,746.1541 L 938.93866,746.93743 L 946.48171,762.43669 C 934.60126,774.42463 942.15629,776.69485 944.98163,781.3299 C 939.77071,791.03416 935.76199,802.88519 925.33877,803.28178 C 922.7182,803.94075 920.79943,803.28472 920.30867,806.50567 C 919.16017,814.04353 922.46637,829.65748 925.49597,838.67623 C 928.60229,845.63867 934.09146,850.34939 937.0705,856.18021 C 939.81557,860.22518 940.48871,864.27015 941.7865,868.31512 L 948.16791,875.51426 C 950.8621,874.7143 953.86125,875.43915 958.10915,882.40776 L 977.2634,888.73107 C 981.39304,892.55926 987.91957,893.59107 994.33248,894.75545 L 1004.3731,927.88954 L 1023.1385,928.3692 C 1026.3822,926.32818 1029.6258,926.50195 1032.8695,930.71835 C 1039.8547,929.61763 1046.0963,927.77342 1055.2823,928.87344 C 1058.1882,925.75635 1061.7997,923.43295 1067.8184,923.81766 C 1075.0276,929.56504 1095.5885,917.87925 1104.4447,912.15921 C 1102.286,908.26221 1098.3482,906.14423 1094.6918,903.74482 C 1094.9869,899.31489 1093.1983,894.46821 1091.6015,889.65991 C 1089.7373,886.72157 1088.2998,883.88995 1089.5313,881.72553 L 1085.1791,872.21367 L 1087.911,871.32329 C 1087.2005,864.07011 1087.249,857.22558 1091.5734,852.68352 C 1088.6053,846.54157 1078.4981,841.67005 1079.0786,834.3838 L 1087.7103,810.07946 L 1064.8054,794.90903 L 1061.0115,781.39369 L 991.02639,737.11753 z "
       id="Tasania"
       style="fill:#fdf9d2;fill-opacity:1" />
    <path
       d="M 443.42514,627.47282 L 455.34347,624.03377 L 447.4356,562.03905 C 446.42502,557.3131 441.7311,555.21811 438.14823,552.32952 L 440.04792,542.19784 L 425.99467,540.37918 C 423.3642,545.63554 424.76662,550.63984 431.13984,555.33346 C 436.29049,576.33548 435.65003,596.51019 437.26457,617.00705 L 443.42514,627.47282 z "
       id="Togo"
       style="fill:#fdf9d2;fill-opacity:1" />
    <path
       d="M 607.06412,103.19425 C 604.04864,103.29682 592.22674,97.13507 585.58615,106.7959 C 585.58615,106.79591 580.58666,109.01014 580.3049,114.13965 C 579.87088,122.04104 579.1174,146.63965 579.1174,146.63965 C 578.28642,145.31009 572.36489,146.31375 571.4299,150.32715 C 570.15939,155.78075 564.01091,154.35318 563.52365,157.1084 C 562.54274,162.65493 567.38586,167.75817 573.08615,172.7334 C 574.54776,174.0091 572.54457,181.06664 573.9924,182.3584 C 578.40749,186.29757 586.2424,188.9834 586.2424,188.9834 C 588.05986,207.05662 591.27365,219.5459 591.27365,219.5459 C 592.46497,220.29036 605.09313,215.95504 600.73861,198.20013 C 600.2343,196.14387 626.62148,187.59692 621.88446,171.08208 C 621.39177,169.36441 617.09652,171.39764 616.39887,168.28178 C 614.83349,161.29046 615.03447,159.56918 612.37697,158.51942 C 611.04244,157.99226 605.51985,163.29407 604.39888,162.61679 C 601.89482,161.10387 598.77105,157.58201 600.12274,155.83797 C 602.4518,152.83284 619.27973,142.40156 619.44808,136.65125 C 619.69865,128.09282 616.53987,127.26711 612.34253,124.98815 C 609.95866,123.69382 610.81487,119.63901 611.58635,117.32608 C 612.05941,115.90782 621.14404,112.81589 620.09651,109.53033 C 619.38551,107.30028 618.06669,106.95897 617.58427,105.21559 C 617.22829,103.92911 610.36422,111.10059 609.93001,109.99261 C 608.78561,107.07241 608.4421,105.28441 607.06412,103.19425 z "
       id="Tunesien"
       style="fill:#fdf9d2;fill-opacity:1" />
    <path
       d="M 823.90409,400.76353 L 693.72482,336.65374 L 676.48198,341.86452 C 677.66198,352.04951 676.7938,359.93497 676.97667,366.16886 C 677.24478,375.30835 683.60529,381.71681 692.32504,384.80607 L 688.46467,394.19965 L 682.91651,444.50015 L 655.74764,474.39784 C 654.88508,476.09423 654.40603,477.79063 654.50703,479.48702 C 653.64704,481.43285 652.54286,482.2798 651.3635,482.78849 C 649.4661,483.967 650.40315,485.95769 650.18262,487.43713 C 648.60284,498.03518 670.76016,513.73114 670.76016,513.73114 C 671.90068,518.51887 673.58803,522.77247 674.43369,527.82547 C 675.34568,533.27484 672.67801,539.8516 673.44584,544.57279 C 674.56068,551.42758 682.16607,552.11478 681.12683,562.57776 L 663.68217,560.97242 C 658.61915,571.07957 662.16252,577.66594 674.59515,580.61579 L 682.80656,605.13098 C 695.99968,602.11964 705.28934,603.72146 722.52404,595.93371 L 738.20322,594.38042 C 741.09514,589.44823 747.21624,586.8226 745.11758,578.32571 L 766.81513,575.9564 C 768.5115,574.37696 769.32489,571.91455 772.07911,571.39295 C 776.33212,571.26158 777.5763,568.49747 778.71448,565.64061 C 780.69653,560.9428 785.69428,559.26069 789.44851,556.33506 C 790.12545,540.84233 801.83528,545.27817 808.97215,542.34641 L 808.1173,536.97008 C 804.03332,532.51762 800.51072,527.46391 799.23401,513.29358 L 791.62045,514.72446 L 791.45266,507.83808 C 793.78404,505.3374 795.45764,499.40715 794.86071,495.19168 L 798.40586,493.52778 L 797.53256,484.57372 L 808.01316,471.17711 L 807.68786,464.61534 L 825.75282,463.6647 L 823.90409,400.76353 z "
       id="Tschad"
       style="fill:#fdf9d2;fill-opacity:1" />
    <path
       d="M 945.20859,668.05686 L 948.51222,665.55283 C 961.79428,668.94023 975.63706,667.00092 989.47871,665.07226 L 997.77007,658.21332 C 1002.4766,660.98599 1005.9998,665.74126 1006.7042,675.66063 L 1014.6798,682.03927 L 1014.6843,701.4083 L 985.0015,746.09043 L 938.72471,746.94604 L 931.64268,752.6841 L 928.87891,752.73786 L 927.28877,750.61014 L 928.35037,723.00127 L 938.72244,707.26067 L 955.2649,692.42039 L 945.26461,686.09777 L 945.20859,668.05686 z "
       id="Uganda"
       style="fill:#fdf9d2;fill-opacity:1" />
    <path
       d="M 228.07564,355.89269 C 230.12911,341.19602 220.993,320.54126 249.54038,319.95174 L 255.53054,275.52473 L 306.44688,280.01735 L 310.31676,250.02521 C 310.31676,250.02521 242.21264,244.99478 242.21264,244.99478 C 235.89245,254.6961 232.22361,262.90847 222.68215,266.69295 C 213.67849,270.26411 210.15577,281.37597 207.60927,290.99931 L 180.80917,321.66566 C 179.84437,328.62886 175.79765,333.28061 170.38262,336.90613 C 165.48634,343.31153 162.49575,351.269 161.74376,358.34565 L 168.57255,352.15416 L 228.07564,355.89269 z "
       id="Westsahara"
       style="fill:#fdf9d2;fill-opacity:1" />
    <path
       d="M 682.90677,605.00184 L 667.52465,630.23454 L 669.58703,648.57933 C 676.16019,661.48994 683.82316,673.41973 694.03899,683.05195 C 700.37945,675.99492 703.16697,670.55362 715.72458,667.30206 L 726.65068,672.05234 L 738.9044,668.60377 C 741.94232,665.07563 741.69581,659.49472 741.93357,654.21648 C 746.145,647.34754 750.68234,643.73785 755.25366,640.46784 C 758.64128,643.08884 764.63987,641.0681 765.09218,648.9074 C 769.10587,653.42283 772.89164,656.1149 775.81717,651.92506 C 779.20804,656.93925 793.62379,655.3385 803.54101,656.43688 C 804.11359,654.57631 805.16503,652.11716 807.19618,648.43337 C 810.51672,647.92986 813.50246,646.62284 818.5689,650.3095 L 839.51497,642.98123 L 840.87982,646.07288 L 849.25682,644.7278 L 849.11114,641.60748 L 867.61749,640.07058 L 871.73902,645.36096 L 873.64826,642.49948 L 876.8091,644.8067 L 879.47262,641.74561 L 888.09847,641.40907 C 886.33403,636.52103 887.08643,630.7252 874.01544,627.64474 L 867.29477,613.91551 C 860.55579,607.4657 848.61348,604.48478 847.74217,594.1232 L 842.57738,589.13212 C 838.20054,589.33631 834.3892,591.23318 829.51233,583.31972 C 821.63011,582.12226 816.28099,580.88723 821.45813,564.92463 C 817.40927,555.14998 811.22264,550.52192 805.85344,543.05788 C 794.554,545.21806 790.01811,544.64187 789.61983,556.32404 C 786.03049,559.18282 780.75905,560.63985 779.11914,565.12317 C 777.69776,568.43676 776.52324,570.988 771.49539,571.41642 C 770.0618,572.30162 768.32307,574.10225 766.52796,576.07202 L 745.11375,578.30554 C 746.23542,582.33359 745.80111,585.96517 741.19301,590.46114 C 739.9628,591.66142 739.08083,593.13294 737.93186,594.42438 L 722.51201,595.8589 C 704.6871,603.72398 695.73935,602.05499 682.90677,605.00184 z "
       id="Zentralafrikanische_Republik"
       style="fill:#fdf9d2;fill-opacity:1" />
    <path
       d="M 889.64535,1240.4064 C 888.43784,1240.5207 886.33191,1240.8739 884.81954,1241.4788 C 883.70674,1241.924 882.70059,1242.3913 881.87043,1243.2215 C 881.19675,1243.8952 881.01667,1244.8939 880.79803,1245.7685 C 880.56953,1246.6824 878.71655,1247.8639 877.98297,1248.0473 C 876.95513,1248.3043 875.56937,1248.0473 874.49766,1248.0473 C 872.35293,1248.0473 871.33157,1247.5793 870.074,1245.9025 C 868.53907,1243.8559 866.61391,1242.2805 865.24819,1240.0043 C 864.28216,1238.3943 863.40113,1237.4122 862.83528,1235.7147 C 862.41065,1234.4408 862.56718,1233.0266 862.56718,1231.6932 C 862.56718,1229.9795 863.3557,1228.4168 864.84604,1227.6717 C 865.02477,1227.5823 865.2035,1227.4929 865.38224,1227.4036 C 867.1343,1226.5275 867.57018,1224.5454 868.86755,1223.248 C 870.2962,1221.8194 872.14836,1220.5508 873.69336,1219.2265 C 874.67528,1218.3848 876.07615,1217.6329 877.17867,1217.0817 C 878.8714,1216.2353 880.48533,1215.7858 882.27258,1215.339 C 883.61343,1215.0038 885.17601,1214.5462 886.29409,1214.2666 C 886.51513,1214.2114 886.74092,1214.1773 886.96434,1214.1326 C 887.18776,1214.0879 887.41118,1214.0432 887.63459,1213.9985 C 889.214,1213.6827 891.20661,1214.4716 892.05825,1215.6071 C 893.22526,1217.1631 894.68563,1218.6635 895.81166,1220.1648 C 896.40025,1220.9496 896.36442,1222.879 896.88407,1223.9182 C 897.62578,1225.4017 898.5063,1226.5061 899.02887,1228.0738 C 899.56407,1229.6794 898.79346,1231.3597 898.09052,1232.7656 C 897.25399,1234.4386 896.12343,1235.4029 894.87331,1236.653 C 893.85012,1237.6762 892.75735,1238.5081 891.6561,1239.334 C 891.07433,1239.7704 890.29084,1240.0192 889.64535,1240.4064 z "
       id="Lesotho"
       style="fill:#fdf9d2;fill-opacity:1" />
  </g>
</svg>
